<?xml version="1.0" encoding="UTF-8" standalone="no"?>
<!-- Created with Inkscape (http://www.inkscape.org/) -->

<svg
   width="793.70081"
   height="755.90552"
   viewBox="0 0 210 200"
   version="1.1"
   id="svg1"
   xml:space="preserve"
   inkscape:version="1.4.2 (f4327f4, 2025-05-13)"
   sodipodi:docname="dibujo logo CLIO NUEVO.svg"
   xmlns:inkscape="http://www.inkscape.org/namespaces/inkscape"
   xmlns:sodipodi="http://sodipodi.sourceforge.net/DTD/sodipodi-0.dtd"
   xmlns="http://www.w3.org/2000/svg"
   xmlns:svg="http://www.w3.org/2000/svg"><sodipodi:namedview
     id="namedview1"
     pagecolor="#ffffff"
     bordercolor="#000000"
     borderopacity="0.25"
     inkscape:showpageshadow="2"
     inkscape:pageopacity="0.0"
     inkscape:pagecheckerboard="0"
     inkscape:deskcolor="#d1d1d1"
     inkscape:document-units="mm"
     inkscape:zoom="1.3095539"
     inkscape:cx="581.11392"
     inkscape:cy="344.7739"
     inkscape:window-width="1920"
     inkscape:window-height="974"
     inkscape:window-x="-11"
     inkscape:window-y="-11"
     inkscape:window-maximized="1"
     inkscape:current-layer="layer1" /><defs
     id="defs1"><inkscape:path-effect
       effect="bspline"
       id="path-effect2"
       is_visible="true"
       lpeversion="1.3"
       weight="33.333333"
       steps="2"
       helper_size="0"
       apply_no_weight="true"
       apply_with_weight="true"
       only_selected="false"
       uniform="false" /></defs><g
     inkscape:label="Capa 1"
     inkscape:groupmode="layer"
     id="layer1"><path
       style="fill:#070a99;fill-opacity:1;stroke-width:0.26423"
       d="m 48.228578,118.05102 53.196462,21.61836 53.19643,-21.61836 0.40301,11.11224 -52.99495,20.8102 -53.599451,-21.61836 z"
       id="path5" /><path
       style="fill:#cdd5c8;fill-opacity:1;stroke-width:0.264583"
       d="m 48.346931,118.07552 53.338779,21.82041 53.13674,-21.41632 c 0,0 -8.44491,-4.14483 -12.93062,-3.83878 -12.38936,0.8453 -33.94285,15.3551 -33.94285,15.3551 l -6.06123,5.85919 -6.66735,-5.65715 c 0,0 -22.134754,-15.48123 -34.953062,-16.16326 -4.18963,-0.22292 -11.920407,4.04081 -11.920407,4.04081 z"
       id="path6"
       sodipodi:nodetypes="cccscccsc" /><path
       style="fill:#878f81;fill-opacity:1;stroke-width:0.267675"
       d="m 55.763265,112.74698 45.661225,21.50616 46.46939,-21.50616 c 0,0 -13.38209,-6.2691 -20.60816,-3.92901 -9.74337,3.15528 -25.25511,22.12653 -25.25511,22.12653 0,0 -16.685026,-19.3535 -26.265306,-22.54011 -7.457304,-2.48047 -20.002039,4.34259 -20.002039,4.34259 z"
       id="path7"
       sodipodi:nodetypes="cccscsc" /><path
       style="fill:#f8c700;fill-opacity:1;stroke-width:0.264583"
       d="m 92.504719,41.502118 6.78606,2.214398 2.214401,6.500331 2.2144,-6.357466 6.78606,-2.071534 -6.71463,-2.071534 -2.0001,-6.928927 -2.357267,6.928927 z"
       id="path8" /><path
       style="fill:#ddc76f;fill-opacity:1;stroke-width:0.264583"
       d="m 62.146026,61.00311 19.715292,24.715547 19.858152,-35.573242 19.42957,36.573293 19.71529,-25.715598 -0.28573,45.85948 c 0,0 -14.60348,-3.55661 -21.2868,-1.14291 -7.38491,2.66708 -17.2866,16.00081 -17.2866,16.00081 0,0 -10.363819,-12.73142 -17.715187,-15.42935 -6.840589,-2.51047 -21.858258,0.28572 -21.858258,0.28572 z"
       id="path9"
       sodipodi:nodetypes="ccccccacacc" /><path
       style="fill:#000680;fill-opacity:1;stroke-width:0.284913"
       d="m 96.47449,131.33686 4.93488,2.26607 5.31869,-2.42793 -4.77038,4.74796 z"
       id="path15" /></g></svg>
